<svg width="33" height="32" viewBox="0 0 33 32" fill="none" xmlns="http://www.w3.org/2000/svg">
<rect x="5.46436" y="17" width="23" height="9" fill="#D9D1ED"/>
<path d="M10.3502 7.1998V9.5998H7.1502C5.38288 9.5998 3.9502 11.0325 3.9502 12.7998V23.9998C3.9502 25.7672 5.38288 27.1998 7.1502 27.1998H26.3544C28.1216 27.1998 29.5544 25.7672 29.5544 23.9998V12.7998C29.5544 11.0325 28.1216 9.5998 26.3544 9.5998H23.1502V7.1998C23.1502 5.87432 22.0756 4.7998 20.7502 4.7998H12.7502C11.4247 4.7998 10.3502 5.87432 10.3502 7.1998ZM12.7502 6.3998H20.7502C21.192 6.3998 21.5502 6.75798 21.5502 7.1998V9.5998H11.9502V7.1998C11.9502 6.75798 12.3084 6.3998 12.7502 6.3998ZM7.1502 11.1998H26.3544C27.238 11.1998 27.9544 11.9162 27.9544 12.7998V15.9998H23.1502V15.201C23.1502 14.7591 22.792 14.401 22.3502 14.401C21.9084 14.401 21.5502 14.7591 21.5502 15.201V15.9998H11.9502V15.201C11.9502 14.7591 11.592 14.401 11.1502 14.401C10.7084 14.401 10.3502 14.7591 10.3502 15.201V15.9998H5.5502V12.7998C5.5502 11.9162 6.26655 11.1998 7.1502 11.1998ZM21.5502 17.5998V18.3998C21.5502 18.8416 21.9084 19.1998 22.3502 19.1998C22.7921 19.1998 23.1502 18.8416 23.1502 18.3998V17.5998H27.9544V23.9998C27.9544 24.8835 27.238 25.5998 26.3544 25.5998H7.1502C6.26655 25.5998 5.5502 24.8835 5.5502 23.9998V17.5998H10.3502V18.3998C10.3502 18.8416 10.7084 19.1998 11.1502 19.1998C11.592 19.1998 11.9502 18.8416 11.9502 18.3998V17.5998H21.5502Z" fill="#2E186A"/>
</svg>
