<svg width="33" height="32" viewBox="0 0 33 32" fill="none" xmlns="http://www.w3.org/2000/svg">
<path d="M9.85039 3.19971C8.08308 3.19971 6.65039 4.6324 6.65039 6.39971V13.5997C6.65039 14.0415 7.00857 14.3997 7.45039 14.3997C7.89221 14.3997 8.25039 14.0415 8.25039 13.5997V6.39971C8.25039 5.51606 8.96674 4.79971 9.85039 4.79971H16.2504V10.3997C16.2504 11.7252 17.325 12.7997 18.6504 12.7997H24.2504V25.5997C24.2504 26.4834 23.5341 27.1997 22.6504 27.1997H9.85039C8.96674 27.1997 8.25039 26.4834 8.25039 25.5997V20.7997H6.65039V25.5997C6.65039 27.3671 8.08308 28.7997 9.85039 28.7997H22.6504C24.4178 28.7997 25.8504 27.3671 25.8504 25.5997V11.8624C25.8504 11.2259 25.5976 10.6155 25.1475 10.1654L18.8846 3.90265C18.4346 3.45257 17.8242 3.19971 17.1877 3.19971H9.85039Z" fill="#2E186A"/>
<path d="M18.6506 11.1995H23.9192L17.8506 5.13086V10.3995C17.8506 10.8413 18.2088 11.1995 18.6506 11.1995Z" fill="#D9D1ED"/>
<path d="M12.1883 13.2921C12.0679 13.0032 11.7901 12.811 11.4773 12.8003C11.1646 12.7895 10.8742 12.9621 10.7343 13.242L8.55537 17.5998H5.8498C5.40798 17.5998 5.0498 17.958 5.0498 18.3998C5.0498 18.8416 5.40798 19.1998 5.8498 19.1998H9.0498C9.35283 19.1998 9.62984 19.0286 9.76534 18.7576L11.3836 15.521L14.7113 23.5075C14.8317 23.7964 15.1095 23.9886 15.4223 23.9993C15.7351 24.01 16.0254 23.8376 16.1653 23.5576L18.3442 19.1998H20.2498C20.6916 19.1998 21.0498 18.8416 21.0498 18.3998C21.0498 17.958 20.6916 17.5998 20.2498 17.5998H17.8498C17.5468 17.5998 17.2698 17.771 17.1343 18.042L15.516 21.2787L12.1883 13.2921Z" fill="#2E186A"/>
</svg>
