<svg width="33" height="32" viewBox="0 0 33 32" fill="none" xmlns="http://www.w3.org/2000/svg">
<path d="M10.2861 4.01518C11.395 3.15197 12.8456 2.67432 14.2873 2.67432C15.1493 2.67432 15.8473 2.97045 16.3761 3.44081C16.5191 3.5681 16.6462 3.70482 16.7591 3.84682C16.8721 3.70482 16.9991 3.5681 17.1422 3.44081C17.6709 2.97045 18.369 2.67432 19.231 2.67432C20.6726 2.67432 22.1233 3.15197 23.2321 4.01518C24.0947 4.68677 24.771 5.61253 25.0359 6.73234C25.5962 6.82496 26.0941 7.11052 26.4966 7.48825C27.1375 8.08978 27.5934 8.95881 27.8806 9.85324C28.1719 10.7612 28.3178 11.7818 28.2738 12.7615C28.2513 13.2631 28.1778 13.7742 28.0371 14.2637C28.0665 14.2764 28.0957 14.2896 28.1247 14.3032C28.6183 14.536 29.0173 14.9004 29.3174 15.384C29.8842 16.2969 30.0837 17.6124 30.0837 19.2882C30.0837 21.2142 29.3475 22.5221 28.4006 23.3344C27.8511 23.8057 27.2447 24.0978 26.7078 24.2538C26.5218 25.1773 26.0566 26.218 25.349 27.1033C24.3853 28.309 22.8873 29.328 20.873 29.328C19.2593 29.328 17.989 28.4356 17.173 27.58C17.0238 27.4234 16.8855 27.2641 16.7591 27.1056C16.6326 27.2641 16.4945 27.4234 16.3451 27.58C15.5293 28.4356 14.2589 29.328 12.6452 29.328C10.6309 29.328 9.133 28.309 8.16926 27.1033C7.4616 26.218 6.99644 25.1773 6.81044 24.2538C6.27352 24.0978 5.6671 23.8057 5.11768 23.3344C4.17076 22.5221 3.43457 21.2142 3.43457 19.2882C3.43457 17.6124 3.63398 16.2969 4.2008 15.384C4.50098 14.9004 4.89996 14.536 5.3935 14.3032C5.42257 14.2896 5.45177 14.2764 5.4811 14.2637C5.34042 13.7742 5.26702 13.2631 5.24448 12.7615C5.20045 11.7818 5.34628 10.7612 5.6377 9.85324C5.92481 8.95881 6.38066 8.08978 7.0217 7.48825C7.42424 7.11052 7.92209 6.82496 8.4823 6.73234C8.74726 5.61253 9.42345 4.68677 10.2861 4.01518ZM11.5147 5.59336C10.787 6.15984 10.3609 6.91445 10.3609 7.78325C10.3609 8.10474 10.2064 8.40664 9.94554 8.59457C9.6847 8.78252 9.34942 8.8336 9.04445 8.73185C8.86125 8.67073 8.66845 8.68564 8.39026 8.94668C8.08196 9.236 7.76806 9.76022 7.54201 10.4645C7.32028 11.1553 7.20952 11.9388 7.24246 12.6717C7.27582 13.4138 7.45229 14.0285 7.73004 14.4454C7.7765 14.5153 7.8134 14.5896 7.84061 14.6665H9.28341C11.2889 14.6665 12.9316 16.2202 13.0735 18.1896C14.0561 18.5826 14.7503 19.5434 14.7503 20.6665C14.7503 22.1393 13.5564 23.3332 12.0837 23.3332C10.6109 23.3332 9.417 22.1393 9.417 20.6665C9.417 19.5549 10.0972 18.6021 11.0641 18.2017C10.936 17.3332 10.1875 16.6665 9.28341 16.6665H5.81673C5.80553 16.6665 5.79436 16.6664 5.78324 16.666C5.58421 17.13 5.43457 17.9318 5.43457 19.2882C5.43457 20.6494 5.92998 21.3961 6.41992 21.8165C6.95756 22.2777 7.54781 22.3972 7.71881 22.3972C8.2711 22.3972 8.71881 22.8449 8.71881 23.3972C8.71881 23.956 9.02788 24.9742 9.73154 25.8546C10.4099 26.7033 11.3752 27.328 12.6452 27.328C13.4946 27.328 14.277 26.8506 14.8978 26.1997C15.2002 25.8826 15.435 25.5533 15.589 25.2861C15.6662 25.1522 15.7161 25.0461 15.7435 24.9757L15.7505 24.9576V21.6837C15.7503 21.678 15.7503 21.6722 15.7503 21.6665C15.7503 21.6608 15.7503 21.655 15.7505 21.6493V12.3332H14.5565C14.1609 13.3104 13.2028 13.9998 12.0837 13.9998C10.6109 13.9998 9.417 12.8059 9.417 11.3332C9.417 9.86041 10.6109 8.6665 12.0837 8.6665C13.2028 8.6665 14.1609 9.35589 14.5565 10.3332H15.7505V6.96464L15.7502 6.94952C15.7498 6.93429 15.749 6.90849 15.7471 6.87368C15.7434 6.80374 15.7357 6.69912 15.7197 6.57177C15.6873 6.31189 15.6239 5.98318 15.5062 5.66874C15.3867 5.35012 15.2314 5.09942 15.0466 4.93505C14.8826 4.78908 14.657 4.67432 14.2873 4.67432C13.2658 4.67432 12.2532 5.01845 11.5147 5.59336ZM17.7678 22.6665V24.9576L17.7746 24.9757C17.8022 25.0461 17.8521 25.1522 17.9293 25.2861C18.0831 25.5533 18.3179 25.8826 18.6203 26.1997C19.2413 26.8506 20.0237 27.328 20.873 27.328C22.1431 27.328 23.1083 26.7033 23.7867 25.8546C24.4903 24.9742 24.7994 23.956 24.7994 23.3972C24.7994 22.8449 25.2471 22.3972 25.7994 22.3972C25.9705 22.3972 26.5607 22.2777 27.0983 21.8165C27.5882 21.3961 28.0837 20.6494 28.0837 19.2882C28.0837 17.677 27.8726 16.8484 27.6183 16.4389C27.5079 16.2612 27.3938 16.1697 27.2715 16.1121C27.1362 16.0482 26.9341 15.9998 26.6205 15.9998C26.2518 15.9998 25.913 15.7969 25.7389 15.4718C25.5649 15.1468 25.5838 14.7524 25.7882 14.4454C26.0659 14.0285 26.2425 13.4138 26.2758 12.6717C26.3087 11.9388 26.1979 11.1553 25.9762 10.4645C25.7502 9.76022 25.4363 9.236 25.1279 8.94668C24.8498 8.68564 24.657 8.67073 24.4738 8.73185C24.1689 8.8336 23.8335 8.78252 23.5727 8.59457C23.3119 8.40664 23.1573 8.10474 23.1573 7.78325C23.1573 6.91445 22.7313 6.15984 22.0035 5.59336C21.265 5.01845 20.2525 4.67432 19.231 4.67432C18.8613 4.67432 18.6357 4.78908 18.4717 4.93505C18.2869 5.09942 18.1315 5.35012 18.0121 5.66874C17.8943 5.98318 17.831 6.31189 17.7986 6.57177C17.7826 6.69912 17.7749 6.80374 17.7711 6.87368C17.7693 6.90849 17.7685 6.93429 17.7681 6.94952L17.7678 6.96464V20.6665H18.617C19.6111 20.6665 20.417 19.8606 20.417 18.8665V16.4726C19.4397 16.077 18.7503 15.1189 18.7503 13.9998C18.7503 12.5271 19.9442 11.3332 21.417 11.3332C22.8898 11.3332 24.0837 12.5271 24.0837 13.9998C24.0837 15.1189 23.3943 16.077 22.417 16.4726V18.8665C22.417 20.9652 20.7157 22.6665 18.617 22.6665H17.7678ZM12.0837 10.6665C11.7155 10.6665 11.417 10.965 11.417 11.3332C11.417 11.7014 11.7155 11.9998 12.0837 11.9998C12.4519 11.9998 12.7503 11.7014 12.7503 11.3332C12.7503 10.965 12.4519 10.6665 12.0837 10.6665ZM11.417 20.6665C11.417 21.0346 11.7155 21.3332 12.0837 21.3332C12.4519 21.3332 12.7503 21.0346 12.7503 20.6665C12.7503 20.2984 12.4519 19.9998 12.0837 19.9998C11.7155 19.9998 11.417 20.2984 11.417 20.6665ZM20.7503 13.9998C20.7503 14.368 21.0489 14.6665 21.417 14.6665C21.7851 14.6665 22.0837 14.368 22.0837 13.9998C22.0837 13.6317 21.7851 13.3332 21.417 13.3332C21.0489 13.3332 20.7503 13.6317 20.7503 13.9998Z" fill="#2E186A"/>
<path d="M11.5147 5.59384C10.787 6.16032 10.3609 6.91494 10.3609 7.78374C10.3609 8.10523 10.2064 8.40712 9.94554 8.59506C9.6847 8.78301 9.34942 8.83408 9.04445 8.73234C8.86125 8.67122 8.66845 8.68613 8.39026 8.94717C8.08196 9.23649 7.76806 9.76071 7.54201 10.465C7.32028 11.1558 7.20952 11.9393 7.24246 12.6722C7.27582 13.4143 7.45229 14.029 7.73004 14.4459C7.7765 14.5158 7.8134 14.5901 7.84061 14.667H9.28341C11.2889 14.667 12.9316 16.2207 13.0735 18.1901C14.0561 18.5831 14.7503 19.5439 14.7503 20.667C14.7503 22.1398 13.5564 23.3337 12.0837 23.3337C10.6109 23.3337 9.417 22.1398 9.417 20.667C9.417 19.5554 10.0972 18.6026 11.0641 18.2022C10.936 17.3337 10.1875 16.667 9.28341 16.667H5.81673C5.80553 16.667 5.79436 16.6669 5.78324 16.6665C5.58421 17.1305 5.43457 17.9323 5.43457 19.2887C5.43457 20.6499 5.92998 21.3966 6.41992 21.817C6.95756 22.2782 7.54781 22.3977 7.71881 22.3977C8.2711 22.3977 8.71881 22.8454 8.71881 23.3977C8.71881 23.9565 9.02788 24.9747 9.73154 25.8551C10.4099 26.7038 11.3752 27.3285 12.6452 27.3285C13.4946 27.3285 14.277 26.8511 14.8978 26.2002C15.2002 25.8831 15.435 25.5538 15.589 25.2866C15.6662 25.1527 15.7161 25.0466 15.7435 24.9762L15.7505 24.9581V21.6842C15.7503 21.6785 15.7503 21.6727 15.7503 21.667C15.7503 21.6613 15.7503 21.6555 15.7505 21.6498V12.3336H14.5565C14.1609 13.3109 13.2028 14.0003 12.0837 14.0003C10.6109 14.0003 9.417 12.8064 9.417 11.3337C9.417 9.8609 10.6109 8.66699 12.0837 8.66699C13.2028 8.66699 14.1609 9.35638 14.5565 10.3336H15.7505V6.96512L15.7502 6.95C15.7498 6.93478 15.749 6.90898 15.7471 6.87416C15.7434 6.80423 15.7357 6.6996 15.7197 6.57226C15.6873 6.31238 15.6239 5.98367 15.5062 5.66923C15.3867 5.3506 15.2314 5.09991 15.0466 4.93554C14.8826 4.78956 14.657 4.6748 14.2873 4.6748C13.2658 4.6748 12.2532 5.01894 11.5147 5.59384ZM12.0837 10.667C11.7155 10.667 11.417 10.9655 11.417 11.3337C11.417 11.7018 11.7155 12.0003 12.0837 12.0003C12.4519 12.0003 12.7503 11.7018 12.7503 11.3337C12.7503 10.9655 12.4519 10.667 12.0837 10.667ZM11.417 20.667C11.417 21.0351 11.7155 21.3337 12.0837 21.3337C12.4519 21.3337 12.7503 21.0351 12.7503 20.667C12.7503 20.2989 12.4519 20.0003 12.0837 20.0003C11.7155 20.0003 11.417 20.2989 11.417 20.667Z" fill="#D9D1ED"/>
</svg>
