<svg width="33" height="32" viewBox="0 0 33 32" fill="none" xmlns="http://www.w3.org/2000/svg">
<path d="M12.2502 3.2002C12.692 3.2002 13.0502 3.55837 13.0502 4.0002V6.4002H15.4502V4.0002C15.4502 3.55837 15.8084 3.2002 16.2502 3.2002C16.692 3.2002 17.0502 3.55837 17.0502 4.0002V6.4002H19.4502V4.0002C19.4502 3.55837 19.8084 3.2002 20.2502 3.2002C20.692 3.2002 21.0502 3.55837 21.0502 4.0002V6.4002H21.8502C24.0593 6.4002 25.8502 8.19106 25.8502 10.4002V11.2002H28.2502C28.692 11.2002 29.0502 11.5584 29.0502 12.0002C29.0502 12.442 28.692 12.8002 28.2502 12.8002H25.8502V15.2002H28.2502C28.692 15.2002 29.0502 15.5584 29.0502 16.0002C29.0502 16.442 28.692 16.8002 28.2502 16.8002H25.8502V19.2002H28.2502C28.692 19.2002 29.0502 19.5584 29.0502 20.0002C29.0502 20.442 28.692 20.8002 28.2502 20.8002H25.8502V21.6002C25.8502 23.8093 24.0593 25.6002 21.8502 25.6002H21.0502V28.0002C21.0502 28.442 20.692 28.8002 20.2502 28.8002C19.8084 28.8002 19.4502 28.442 19.4502 28.0002V25.6002H17.0502V28.0002C17.0502 28.442 16.692 28.8002 16.2502 28.8002C15.8084 28.8002 15.4502 28.442 15.4502 28.0002V25.6002H13.0502V28.0002C13.0502 28.442 12.692 28.8002 12.2502 28.8002C11.8084 28.8002 11.4502 28.442 11.4502 28.0002V25.6002H10.6502C8.44106 25.6002 6.6502 23.8093 6.6502 21.6002V20.8002H4.2502C3.80837 20.8002 3.4502 20.442 3.4502 20.0002C3.4502 19.5584 3.80837 19.2002 4.2502 19.2002H6.6502V16.8002H4.2502C3.80837 16.8002 3.4502 16.442 3.4502 16.0002C3.4502 15.5584 3.80837 15.2002 4.2502 15.2002H6.6502V12.8002H4.2502C3.80837 12.8002 3.4502 12.442 3.4502 12.0002C3.4502 11.5584 3.80837 11.2002 4.2502 11.2002H6.6502V10.4002C6.6502 8.19106 8.44106 6.4002 10.6502 6.4002H11.4502V4.0002C11.4502 3.55837 11.8084 3.2002 12.2502 3.2002Z" fill="#2E1968"/>
<path d="M21.85 8C23.1754 8 24.25 9.07451 24.25 10.4V21.6C24.25 22.9254 23.1754 24 21.85 24H10.65C9.32451 24 8.25 22.9254 8.25 21.6V10.4C8.25 9.07451 9.32451 8 10.65 8H21.85Z" fill="#D9D1ED"/>
<path d="M11.4502 16.0002C11.4502 13.3492 13.5992 11.2002 16.2502 11.2002C18.9012 11.2002 21.0502 13.3492 21.0502 16.0002C21.0502 18.6512 18.9012 20.8002 16.2502 20.8002C13.5992 20.8002 11.4502 18.6512 11.4502 16.0002Z" fill="#2E1968"/>
<path d="M16.2498 12.8003C14.4825 12.8003 13.0498 14.233 13.0498 16.0003C13.0498 17.7677 14.4825 19.2003 16.2498 19.2003C18.0172 19.2003 19.4498 17.7677 19.4498 16.0003C19.4498 14.233 18.0172 12.8003 16.2498 12.8003Z" fill="white"/>
</svg>
