<svg width="33" height="32" viewBox="0 0 33 32" fill="none" xmlns="http://www.w3.org/2000/svg">
<path d="M22.9025 1.64137C23.3217 1.78109 23.5483 2.23415 23.4086 2.6533L22.6086 5.0533C22.4689 5.47245 22.0158 5.69898 21.5966 5.55927C21.1776 5.41954 20.951 4.96649 21.0907 4.54733L21.8907 2.14733C22.0304 1.72818 22.4835 1.50165 22.9025 1.64137ZM28.8166 4.56597C29.1291 4.25356 29.1291 3.74703 28.8166 3.43461C28.5043 3.12218 27.9977 3.12218 27.6852 3.43461L24.4852 6.63461C24.1729 6.94703 24.1729 7.45356 24.4852 7.76597C24.7977 8.07841 25.3043 8.07841 25.6166 7.76597L28.8166 4.56597ZM12.4207 5.03303C13.3866 3.00015 16.0937 2.57319 17.6384 4.21012L28.1772 15.3784C29.6945 16.9864 29.1632 19.6118 27.14 20.503L20.8406 23.2782C20.9764 23.7614 21.0491 24.271 21.0491 24.7976C21.0491 27.8904 18.5419 30.3976 15.4492 30.3976C13.4399 30.3976 11.6778 29.3395 10.6898 27.7501L8.76877 28.5963C7.8661 28.9941 6.81205 28.7989 6.11155 28.1045L4.15672 26.1665C3.43293 25.4491 3.24123 24.3528 3.67861 23.4321L12.4207 5.03303ZM12.1748 27.0958C12.8986 28.1251 14.0953 28.7976 15.4492 28.7976C17.6584 28.7976 19.4491 27.0069 19.4491 24.7976C19.4491 24.5006 19.4168 24.2112 19.3553 23.9325L12.1748 27.0958ZM27.4494 9.6003C27.0076 9.6003 26.6494 9.95847 26.6494 10.4003C26.6494 10.8421 27.0076 11.2003 27.4494 11.2003H29.8481C30.29 11.2003 30.6481 10.8421 30.6481 10.4003C30.6481 9.95847 30.29 9.6003 29.8481 9.6003H27.4494Z" fill="#2E186A"/>
<path d="M13.8664 5.71978C14.3493 4.70335 15.7029 4.48986 16.4752 5.30833L27.0141 16.4766C27.7727 17.2806 27.5071 18.5934 26.4954 19.039L8.12425 27.1322C7.82337 27.2647 7.47201 27.1998 7.23853 26.9682L5.28368 25.0305C5.04241 24.7913 4.97853 24.4258 5.12432 24.119L13.8664 5.71978Z" fill="#D9D1ED"/>
</svg>
