<svg width="33" height="32" viewBox="0 0 33 32" fill="none" xmlns="http://www.w3.org/2000/svg">
<path fill-rule="evenodd" clip-rule="evenodd" d="M8.13564 3.48805C8.28762 3.30565 8.51279 3.2002 8.75021 3.2002H24.7502C24.9876 3.2002 25.2128 3.30565 25.3648 3.48805L29.3648 8.28805C29.5515 8.51207 29.551 8.62596 29.5504 8.77159V8.77192C29.5502 8.77871 29.5502 8.78556 29.5502 8.79249L29.5502 8.8002V11.2002C29.5502 12.6218 28.9321 13.8991 27.9502 14.778V28.0002C27.9502 28.442 27.592 28.8002 27.1502 28.8002H6.3502C5.90837 28.8002 5.5502 28.442 5.5502 28.0002V14.778C4.5682 13.8991 3.9502 12.6218 3.9502 11.2002V8.8002C3.95023 8.61652 4.01348 8.43463 4.13564 8.28805L8.13564 3.48805ZM10.3502 19.2002V27.2002H15.1502V19.2002H10.3502ZM19.95 22.4002V19.2002H23.15V22.4002H19.95Z" fill="#D9D1ED"/>
<path d="M18.3496 18.4001V23.2001C18.3496 23.6419 18.7078 24.0001 19.1496 24.0001H23.9496C24.3914 24.0001 24.7496 23.6419 24.7496 23.2001V18.4001C24.7496 17.9583 24.3914 17.6001 23.9496 17.6001H19.1496C18.7078 17.6001 18.3496 17.9583 18.3496 18.4001ZM19.9496 22.4001V19.2001H23.1496V22.4001H19.9496Z" fill="#2E1869"/>
<path d="M8.75021 3.2002C8.51279 3.2002 8.28762 3.30565 8.13564 3.48805L4.13564 8.28805C4.01348 8.43463 3.95023 8.61652 3.9502 8.8002V11.2002C3.9502 12.6218 4.5682 13.8991 5.5502 14.778V28.0002C5.5502 28.442 5.90837 28.8002 6.3502 28.8002H27.1502C27.592 28.8002 27.9502 28.442 27.9502 28.0002V14.778C28.9321 13.8991 29.5502 12.6218 29.5502 11.2002V8.8002C29.5502 8.79061 29.5502 8.7812 29.5504 8.77192C29.551 8.62613 29.5516 8.51224 29.3648 8.28805L25.3648 3.48805C25.2128 3.30565 24.9876 3.2002 24.7502 3.2002H8.75021ZM8.7502 14.4002C6.98288 14.4002 5.5502 12.9675 5.5502 11.2002V9.6002H11.9502V11.2002C11.9502 12.9675 10.5175 14.4002 8.7502 14.4002ZM16.7502 14.4002C14.9829 14.4002 13.5502 12.9675 13.5502 11.2002V9.6002H19.9502V11.2002C19.9502 12.9675 18.5176 14.4002 16.7502 14.4002ZM24.7502 14.4002C22.9828 14.4002 21.5502 12.9675 21.5502 11.2002V9.6002H27.9502V11.2002C27.9502 12.9675 26.5176 14.4002 24.7502 14.4002ZM8.7502 27.2002H7.1502V15.7271C7.65064 15.904 8.18917 16.0002 8.7502 16.0002C10.4198 16.0002 11.8903 15.1478 12.7502 13.8544C13.6101 15.1478 15.0806 16.0002 16.7502 16.0002C18.4198 16.0002 19.8902 15.1478 20.7502 13.8544C21.6102 15.1478 23.0806 16.0002 24.7502 16.0002C25.3112 16.0002 25.8497 15.904 26.3502 15.7271V27.2002H16.7502V18.4002C16.7502 17.9584 16.392 17.6002 15.9502 17.6002H9.5502C9.10837 17.6002 8.7502 17.9584 8.7502 18.4002V27.2002ZM12.1736 8.0002H6.45824L9.1249 4.8002H13.2403L12.1736 8.0002ZM19.6403 8.0002H13.8602L14.9268 4.8002H18.5736L19.6403 8.0002ZM21.3268 8.0002L20.2601 4.8002H24.3755L27.0422 8.0002H21.3268ZM10.3502 27.2002V19.2002H15.1502V27.2002H10.3502Z" fill="#2E1968"/>
</svg>
