<svg width="33" height="32" viewBox="0 0 33 32" fill="none" xmlns="http://www.w3.org/2000/svg">
<g clip-path="url(#clip0_14697_21244)">
<path d="M10.25 16C10.25 14.0222 10.8365 12.0888 11.9353 10.4443C13.0341 8.79981 14.5959 7.51809 16.4232 6.76121C18.2504 6.00433 20.2611 5.8063 22.2009 6.19215C24.1407 6.578 25.9225 7.53041 27.3211 8.92894C28.7196 10.3275 29.672 12.1093 30.0579 14.0491C30.4437 15.9889 30.2457 17.9996 29.4888 19.8268C28.7319 21.6541 27.4502 23.2159 25.8057 24.3147C24.1612 25.4135 22.2278 26 20.25 26H9.25C7.39348 26 5.61301 25.2625 4.30025 23.9498C2.9875 22.637 2.25 20.8565 2.25 19C2.25 17.1435 2.9875 15.363 4.30025 14.0503C5.61301 12.7375 7.39348 12 9.25 12C9.83566 11.9998 10.4192 12.0711 10.9875 12.2125" fill="#D9D1ED"/>
<path d="M10.25 16C10.25 14.0222 10.8365 12.0888 11.9353 10.4443C13.0341 8.79981 14.5959 7.51809 16.4232 6.76121C18.2504 6.00433 20.2611 5.8063 22.2009 6.19215C24.1407 6.578 25.9225 7.53041 27.3211 8.92894C28.7196 10.3275 29.672 12.1093 30.0579 14.0491C30.4437 15.9889 30.2457 17.9996 29.4888 19.8268C28.7319 21.6541 27.4502 23.2159 25.8057 24.3147C24.1612 25.4135 22.2278 26 20.25 26H9.25C7.39348 26 5.61301 25.2625 4.30025 23.9498C2.9875 22.637 2.25 20.8565 2.25 19C2.25 17.1435 2.9875 15.363 4.30025 14.0503C5.61301 12.7375 7.39348 12 9.25 12C9.83566 11.9998 10.4192 12.0711 10.9875 12.2125" stroke="#2E1869" stroke-width="2" stroke-linecap="round" stroke-linejoin="round"/>
</g>
<defs>
<clipPath id="clip0_14697_21244">
<rect width="32" height="32" fill="white" transform="translate(0.25)"/>
</clipPath>
</defs>
</svg>
