<svg width="33" height="32" viewBox="0 0 33 32" fill="none" xmlns="http://www.w3.org/2000/svg">
<path d="M12.75 3.19971C10.5409 3.19971 8.75 4.99057 8.75 7.19971V19.9997C8.75 22.2088 10.5409 23.9997 12.75 23.9997H25.5499C27.7591 23.9997 29.5499 22.2088 29.5499 19.9997V7.19971C29.5499 4.99057 27.7591 3.19971 25.5499 3.19971H12.75ZM15.15 7.19971C15.15 8.52519 16.2245 9.59971 17.5499 9.59971H27.9499V19.9997C27.9499 21.3251 26.8755 22.3997 25.5499 22.3997H12.75C11.4245 22.3997 10.35 21.3251 10.35 19.9997V7.19971C10.35 5.87422 11.4245 4.79971 12.75 4.79971H15.15V7.19971Z" fill="#2E186A"/>
<path d="M27.95 7.9998V7.1998C27.95 5.87432 26.8756 4.7998 25.55 4.7998H16.75V7.1998C16.75 7.64163 17.1082 7.9998 17.55 7.9998H27.95Z" fill="#D9D1ED"/>
<path d="M20.7501 28.7996C22.6853 28.7996 24.2996 27.4254 24.6701 25.5996H23.0137C22.6842 26.5318 21.7953 27.1996 20.7501 27.1996H10.3502C7.69923 27.1996 5.5502 25.0505 5.5502 22.3996V11.9996C5.5502 10.9546 6.21805 10.0656 7.15021 9.73613V8.07959C5.32442 8.4502 3.9502 10.0644 3.9502 11.9996V22.3996C3.9502 25.9342 6.81559 28.7996 10.3502 28.7996H20.7501Z" fill="#2E186A"/>
</svg>
