<svg width="40" height="40" viewBox="0 0 40 40" fill="none" xmlns="http://www.w3.org/2000/svg">
<path d="M10.8787 35.1137L13.8236 23.3335L9.58374 23.3335C8.75329 23.3335 8.15373 22.5387 8.38186 21.7402L13.3817 4.2401C13.5351 3.70346 14.0255 3.3335 14.5836 3.3335L26.25 3.3335C27.1032 3.3335 27.7057 4.16936 27.4358 4.97878L24.651 13.3335L32.0832 13.3335C33.1843 13.3335 33.7475 14.6544 32.985 15.449L30.1728 18.3797C29.8415 18.3492 29.5058 18.3335 29.1667 18.3335C28.2153 18.3335 27.2927 18.4562 26.4135 18.6865L29.1513 15.8335L22.9167 15.8335C22.0635 15.8335 21.4612 14.9976 21.731 14.1882L24.5158 5.8335L15.5265 5.8335L11.2409 20.8335L15.4246 20.8335C16.2378 20.8335 16.8345 21.5977 16.6372 22.3867L14.444 31.1598L18.5825 26.8472C18.4195 27.5945 18.3335 28.3707 18.3335 29.1668C18.3335 29.6585 18.3663 30.1427 18.4297 30.617L12.9932 36.2823C12.106 37.2068 10.5679 36.3568 10.8787 35.1137Z" fill="white" fill-opacity="0.64"/>
<path d="M29.1665 38.3333C34.2288 38.3333 38.3328 34.2293 38.3328 29.1667C38.3328 24.104 34.2288 20 29.1665 20C24.104 20 20 24.104 20 29.1667C20 34.2293 24.104 38.3333 29.1665 38.3333ZM34.7555 26.4227L28.089 33.0893C27.7637 33.4147 27.236 33.4147 26.9105 33.0893L23.5773 29.756C23.2518 29.4305 23.2518 28.9028 23.5773 28.5773C23.9027 28.252 24.4303 28.252 24.7558 28.5773L27.4998 31.3215L33.577 25.244C33.9025 24.9187 34.4302 24.9187 34.7555 25.244C35.081 25.5695 35.081 26.0972 34.7555 26.4227Z" fill="white"/>
</svg>
