<svg width="40" height="40" viewBox="0 0 40 40" fill="none" xmlns="http://www.w3.org/2000/svg">
<path d="M20.0373 4.99805C19.5425 5.77043 19.1432 6.60973 18.8557 7.49936L8.74967 7.50006C7.13884 7.50006 5.83301 8.8059 5.83301 10.4167L5.83301 24.5834C5.83301 26.1942 7.13884 27.5001 8.74967 27.5001L12.4977 27.5001L12.4994 33.7511L20.8555 27.5001L31.2497 27.5001C32.8605 27.5001 34.1663 26.1942 34.1663 24.5834L34.1682 20.4454C35.0863 19.9667 35.9273 19.3601 36.6677 18.6494L36.6663 24.5834C36.6663 27.5749 34.2412 30.0001 31.2497 30.0001L21.6872 30.0001L13.3308 36.2512C12.4094 36.9404 11.1038 36.7521 10.4147 35.8307C10.1453 35.4704 9.99967 35.0327 9.99967 34.5832L9.99836 30.0001L8.74967 30.0001C5.75812 30.0001 3.33301 27.5749 3.33301 24.5834L3.33301 10.4167C3.33301 7.42518 5.75812 5.00006 8.74967 5.00006L20.0373 4.99805Z" fill="white" fill-opacity="0.64"/>
<path d="M29.1662 1.66675C34.2288 1.66675 38.3328 5.7708 38.3328 10.8334C38.3328 15.896 34.2288 20.0001 29.1662 20.0001C24.1035 20.0001 19.9995 15.896 19.9995 10.8334C19.9995 5.7708 24.1035 1.66675 29.1662 1.66675ZM33.577 6.9108L26.7563 13.7314L24.8328 11.1667C24.5567 10.7985 24.0343 10.7239 23.6662 11C23.298 11.2762 23.2233 11.7985 23.4995 12.1667L25.9995 15.5C26.3038 15.9057 26.8968 15.9479 27.2555 15.5893L34.7555 8.0893C35.0808 7.76386 35.0808 7.23623 34.7555 6.9108C34.43 6.58535 33.9023 6.58535 33.577 6.9108Z" fill="white"/>
</svg>
