<svg width="39" height="39" viewBox="0 0 39 39" fill="none" xmlns="http://www.w3.org/2000/svg">
<path d="M14.3372 8.71062C14.2948 8.45529 14.2728 8.1931 14.2728 7.92574C14.2728 5.29824 16.4027 3.16821 19.0303 3.16821C21.6579 3.16821 23.7878 5.29824 23.7878 7.92574C23.7878 8.19394 23.7656 8.45694 23.723 8.71302L27.5791 7.27453C29.5701 6.53182 31.7791 7.59494 32.4408 9.61429C33.0415 11.4479 32.149 13.4376 30.38 14.2081L25.3737 16.3888L25.3737 17.7201C24.5367 17.9178 23.7391 18.2175 22.9949 18.6054L22.9949 15.6096C22.9949 15.1364 23.2754 14.7081 23.7093 14.5192L29.4301 12.0273C30.0741 11.7468 30.3991 11.0225 30.1802 10.355C29.9393 9.6199 29.1353 9.23291 28.4106 9.50328L20.8293 12.3314C20.2742 12.5582 19.6669 12.6833 19.0303 12.6833C18.3715 12.6833 17.744 12.5494 17.1736 12.3073L9.41537 9.41374C8.7452 9.16379 7.99651 9.481 7.7099 10.1363C7.41219 10.817 7.72156 11.6102 8.40149 11.9095L14.3556 14.531C14.7871 14.721 15.0657 15.148 15.0657 15.6196L15.0657 21.5421C15.0657 21.6741 15.0437 21.8052 15.0006 21.93L11.9512 30.7676C11.7272 31.4167 12.0466 32.1279 12.6806 32.3918C13.3645 32.6763 14.1477 32.3328 14.4014 31.6368L17.0179 24.4585C17.2943 23.7 17.8918 23.247 18.5515 23.1C17.8435 24.4976 17.4445 26.0784 17.4445 27.7523C17.4445 28.4251 17.5088 29.0828 17.6321 29.7197L16.6363 32.4514C15.9184 34.4209 13.7022 35.3933 11.7667 34.588C9.97273 33.8414 9.06869 31.8285 9.7025 29.9916L12.6869 21.3426L12.6869 16.3954L7.44296 14.0866C5.56272 13.2588 4.70724 11.0653 5.53048 9.18309C6.32307 7.37092 8.39342 6.49376 10.2466 7.18495L14.3372 8.71062ZM16.6515 7.92574C16.6515 8.89847 17.2354 9.73483 18.0718 10.1035C18.6789 10.3278 19.3448 10.3327 19.9545 10.1183C20.8091 9.75757 21.4091 8.91171 21.4091 7.92574C21.4091 6.612 20.344 5.54698 19.0303 5.54698C17.7166 5.54698 16.6515 6.612 16.6515 7.92574Z" fill="white" fill-opacity="0.64"/>
<path d="M36.4745 27.7524C36.4745 32.5696 32.5696 36.4745 27.7524 36.4745C22.9353 36.4745 19.0303 32.5696 19.0303 27.7524C19.0303 22.9353 22.9353 19.0303 27.7524 19.0303C32.5696 19.0303 36.4745 22.9353 36.4745 27.7524ZM33.0707 24.02C32.761 23.7104 32.2589 23.7104 31.9492 24.02L26.1666 29.8027L23.5556 27.1917C23.2459 26.8821 22.7438 26.8821 22.4341 27.1917C22.1246 27.5014 22.1246 28.0034 22.4341 28.3132L25.6058 31.4849C25.9155 31.7944 26.4176 31.7944 26.7273 31.4849L33.0707 25.1415C33.3803 24.8318 33.3803 24.3297 33.0707 24.02Z" fill="white"/>
</svg>
